<?xml version="1.0" encoding="UTF-8" standalone="no"?>
<!DOCTYPE svg PUBLIC "-//W3C//DTD SVG 1.1//EN" "http://www.w3.org/Graphics/SVG/1.1/DTD/svg11.dtd">
<svg width="100%" height="100%" viewBox="0 0 278 38" version="1.1" xmlns="http://www.w3.org/2000/svg" xmlns:xlink="http://www.w3.org/1999/xlink" xml:space="preserve" xmlns:serif="http://www.serif.com/" style="fill-rule:evenodd;clip-rule:evenodd;stroke-linejoin:round;stroke-miterlimit:2;">
    <g transform="matrix(2,0,0,2,-457.19,-960.746)">
        <path d="M297.15,480.373L296.792,480.376L296.576,480.382L296.142,480.396L295.277,480.423C294.126,480.46 292.975,480.497 291.826,480.534C289.525,480.582 287.272,480.856 285.021,481.018C280.539,481.408 276.175,482.069 271.987,482.807C269.902,483.227 267.844,483.561 265.85,484.036C263.863,484.516 261.911,484.925 260.031,485.432C258.153,485.959 256.324,486.422 254.571,486.958C252.823,487.516 251.129,488.011 249.519,488.563C247.912,489.14 246.367,489.649 244.915,490.21C243.463,490.784 242.083,491.285 240.801,491.834C238.233,492.905 236.016,493.913 234.208,494.809C232.396,495.681 231.004,496.499 230.046,497.007C229.566,497.264 229.206,497.495 228.963,497.638C228.721,497.786 228.595,497.86 228.595,497.86L228.824,498.973C228.824,498.973 230.98,498.556 234.782,497.915C236.682,497.598 238.992,497.224 241.644,496.817C244.297,496.425 247.291,495.982 250.557,495.499C253.825,495.029 257.368,494.558 261.122,494.098C263.001,493.887 264.93,493.667 266.902,493.443C268.876,493.248 270.895,493.05 272.947,492.849C274.999,492.682 277.088,492.513 279.202,492.342C281.317,492.216 283.458,492.088 285.618,491.959C289.934,491.764 294.331,491.632 298.701,491.681L298.843,491.681L298.843,480.374L298.803,480.373L297.15,480.373Z"/>
    </g>
    <g transform="matrix(2,0,0,2,-457.19,-960.746)">
        <path d="M365.724,497.394C364.775,496.872 363.391,496.034 361.589,495.143C359.787,494.224 357.582,493.194 355.021,492.101C352.457,491.013 349.534,489.882 346.314,488.765C343.087,487.658 339.566,486.569 335.798,485.574C332.029,484.588 328.021,483.657 323.832,482.909C321.748,482.474 319.597,482.196 317.425,481.876C315.255,481.532 313.035,481.295 310.801,481.087C309.685,480.976 308.564,480.864 307.395,480.79C306.238,480.696 305.075,480.621 303.91,480.573L302.159,480.492C301.851,480.474 301.558,480.47 301.265,480.462L301.265,491.712C304.264,491.755 307.237,491.858 310.189,492.011C314.507,492.225 318.753,492.541 322.859,492.922C331.064,493.674 338.706,494.672 345.23,495.659C348.491,496.171 351.48,496.636 354.13,497.051C356.779,497.484 359.082,497.886 360.974,498.231C364.764,498.917 366.912,499.373 366.912,499.373L367.166,498.269C367.166,498.269 366.673,497.938 365.724,497.394Z"/>
    </g>
</svg>
