<?xml version="1.0" encoding="UTF-8" standalone="no"?>
<!DOCTYPE svg PUBLIC "-//W3C//DTD SVG 1.1//EN" "http://www.w3.org/Graphics/SVG/1.1/DTD/svg11.dtd">
<svg width="100%" height="100%" viewBox="0 0 253 102" version="1.1" xmlns="http://www.w3.org/2000/svg" xmlns:xlink="http://www.w3.org/1999/xlink" xml:space="preserve" xmlns:serif="http://www.serif.com/" style="fill-rule:evenodd;clip-rule:evenodd;stroke-linejoin:round;stroke-miterlimit:2;">
    <g transform="matrix(2,0,0,2,-884.987,-898.526)">
        <path d="M504.688,493.04C504.56,490.201 504.16,486.117 502.875,485.977C496.139,485.252 480.693,493.054 474.837,494.476C474.246,494.619 467.4,493.997 464.593,493.358C461.788,492.731 459.024,491.753 456.55,490.351C455.302,489.66 454.171,488.814 453.16,487.876L452.783,487.52L452.619,487.367L452.424,487.155L451.652,486.303C451.199,485.76 450.737,485.224 450.305,484.632C448.545,482.322 447.16,479.777 446.141,477.174C445.137,474.569 444.527,471.907 444.296,469.338C444.08,466.772 444.229,464.307 444.695,462.091C445.59,457.621 447.72,454.291 449.432,452.243C450.315,451.224 451.072,450.476 451.613,449.997C452.159,449.518 452.451,449.263 452.451,449.263C452.451,449.263 452.138,449.496 451.558,449.927C450.976,450.368 450.16,451.058 449.185,452.016C448.238,452.998 447.149,454.271 446.134,455.897C445.123,457.525 444.159,459.503 443.513,461.799C442.845,464.086 442.477,466.675 442.494,469.425C442.524,472.173 442.95,475.074 443.811,477.968C444.687,480.854 445.973,483.741 447.703,486.433C448.121,487.108 448.604,487.776 449.087,488.452L449.794,489.364L449.972,489.595L450.207,489.858L450.629,490.339C451.774,491.594 453.064,492.725 454.457,493.651C457.229,495.545 460.281,496.899 463.352,497.863C466.425,498.833 469.53,499.468 472.555,499.827C478.613,500.559 484.354,500.313 489.242,499.502C491.691,499.098 493.92,498.546 495.889,497.925C496.938,497.604 497.902,497.249 498.789,496.889C502.3,496.581 504.744,496.139 504.744,495.645C504.744,495.417 504.744,494.715 504.711,493.787C504.928,493.645 505.057,493.563 505.057,493.563L504.688,493.04Z"/>
    </g>
    <g transform="matrix(2,0,0,2,-884.987,-898.526)">
        <path d="M567.597,461.799C566.953,459.503 565.989,457.525 564.977,455.897C563.962,454.271 562.874,452.998 561.926,452.016C560.952,451.058 560.135,450.368 559.554,449.927C558.973,449.496 558.661,449.263 558.661,449.263C558.661,449.263 558.953,449.518 559.499,449.997C560.04,450.476 560.796,451.224 561.679,452.243C563.391,454.291 565.521,457.621 566.417,462.091C566.882,464.307 567.033,466.772 566.815,469.338C566.585,471.907 565.973,474.569 564.969,477.174C563.952,479.777 562.565,482.322 560.806,484.632C560.374,485.224 559.912,485.76 559.459,486.303L558.687,487.155L558.493,487.367L558.328,487.52L557.952,487.876C556.94,488.814 555.809,489.66 554.561,490.351C552.087,491.753 549.324,492.731 546.519,493.358C543.711,493.997 536.866,494.619 536.274,494.476C530.418,493.054 514.973,485.252 508.237,485.977C506.952,486.117 506.551,490.201 506.423,493.04L506.054,493.563C506.054,493.563 506.183,493.645 506.4,493.787C506.368,494.715 506.368,495.417 506.368,495.645C506.368,496.139 508.811,496.581 512.323,496.889C513.209,497.249 514.172,497.604 515.222,497.925C517.19,498.546 519.421,499.098 521.87,499.502C526.757,500.313 532.499,500.559 538.555,499.827C541.58,499.468 544.686,498.833 547.759,497.863C550.831,496.899 553.882,495.545 556.655,493.651C558.047,492.725 559.337,491.594 560.482,490.339L560.905,489.858L561.139,489.595L561.316,489.364L562.024,488.452C562.507,487.776 562.99,487.108 563.41,486.433C565.138,483.741 566.425,480.854 567.3,477.968C568.162,475.074 568.587,472.173 568.617,469.425C568.634,466.675 568.267,464.086 567.597,461.799Z"/>
    </g>
</svg>
