<?xml version="1.0" encoding="UTF-8" standalone="no"?>
<!DOCTYPE svg PUBLIC "-//W3C//DTD SVG 1.1//EN" "http://www.w3.org/Graphics/SVG/1.1/DTD/svg11.dtd">
<svg width="100%" height="100%" viewBox="0 0 310 65" version="1.1" xmlns="http://www.w3.org/2000/svg" xmlns:xlink="http://www.w3.org/1999/xlink" xml:space="preserve" xmlns:serif="http://www.serif.com/" style="fill-rule:evenodd;clip-rule:evenodd;stroke-linejoin:round;stroke-miterlimit:2;">
    <g transform="matrix(2,0,0,2,-27.324,-934.814)">
        <path d="M81.435,479.111C79.257,479.111 63.853,489.559 51.864,487.386C34.167,484.181 16.953,470.195 13.662,467.407C17.165,470.397 36.227,486.391 53.001,494.815C65.689,501.187 77.066,499.437 79.402,499.437C85.155,499.437 90.835,492.747 90.835,488.258C90.835,483.768 87.188,479.111 81.435,479.111Z"/>
    </g>
    <g transform="matrix(2,0,0,2,-27.324,-934.814)">
        <path d="M130.315,487.386C118.327,489.559 102.922,479.111 100.745,479.111C94.991,479.111 91.343,483.768 91.343,488.258C91.343,492.747 97.023,499.437 102.777,499.437C105.113,499.437 116.49,501.187 129.179,494.815C145.952,486.391 165.014,470.397 168.518,467.407C165.226,470.195 148.013,484.181 130.315,487.386Z"/>
    </g>
</svg>
